<svg xmlns="http://www.w3.org/2000/svg" viewBox="0 0 70 70"><defs><style>.cls-1{fill:#fff;}.cls-2,.cls-3{fill:none;}.cls-2,.cls-4{stroke:#000;}.cls-2,.cls-3,.cls-4{stroke-miterlimit:10;}.cls-2{stroke-width:3px;}.cls-3{stroke:#231f20;}.cls-3,.cls-4{stroke-linecap:round;}.cls-4{stroke-width:2px;}</style></defs><title>Asset 4</title><g id="Layer_2" data-name="Layer 2"><g id="Layer_1-2" data-name="Layer 1"><path class="cls-1" d="M35,68.5A33.5,33.5,0,1,1,68.5,35,33.54,33.54,0,0,1,35,68.5Z"/><path d="M35,3A32,32,0,1,1,3,35,32,32,0,0,1,35,3m0-3A35,35,0,1,0,70,35,35,35,0,0,0,35,0Z"/><path class="cls-2" d="M17.5,21.5"/><path class="cls-2" d="M42.5,21.5"/><path d="M24,44.86a2.34,2.34,0,0,1,0,.38,3.26,3.26,0,0,1-6.52,0,2.34,2.34,0,0,1,0-.38Z"/><path class="cls-3" d="M24,44.86a2.34,2.34,0,0,1,0,.38,3.26,3.26,0,0,1-6.52,0,2.34,2.34,0,0,1,0-.38"/><line class="cls-3" x1="24.02" y1="44.86" x2="17.56" y2="44.86"/><path d="M40,44.86a2.34,2.34,0,0,1,0,.38,3.26,3.26,0,0,1-6.52,0,2.34,2.34,0,0,1,0-.38Z"/><path class="cls-3" d="M40,44.86a2.34,2.34,0,0,1,0,.38,3.26,3.26,0,0,1-6.52,0,2.34,2.34,0,0,1,0-.38"/><line class="cls-3" x1="40.02" y1="44.86" x2="33.56" y2="44.86"/><path d="M54,44.86a2.34,2.34,0,0,1,0,.38,3.26,3.26,0,0,1-6.52,0,2.34,2.34,0,0,1,0-.38Z"/><path class="cls-3" d="M54,44.86a2.34,2.34,0,0,1,0,.38,3.26,3.26,0,0,1-6.52,0,2.34,2.34,0,0,1,0-.38"/><line class="cls-3" x1="54.02" y1="44.86" x2="47.56" y2="44.86"/></g><g id="Layer_2-2" data-name="Layer 2"><path class="cls-4" d="M14.68,24H42.5a0,0,0,0,1,0,0V42.5a0,0,0,0,1,0,0h-28a0,0,0,0,1,0,0V24.16A.18.18,0,0,1,14.68,24Z"/><path class="cls-4" d="M47.55,30.7h10a0,0,0,0,1,0,0V42.93a0,0,0,0,1,0,0H47.46a1.53,1.53,0,0,1-1.53-1.53V32.32A1.62,1.62,0,0,1,47.55,30.7Z" transform="translate(88.57 -14.93) rotate(90)"/><path class="cls-1" d="M50.5,29.45h4a0,0,0,0,1,0,0v10a0,0,0,0,1,0,0h-4a.9.9,0,0,1-.9-.9V30.4A1,1,0,0,1,50.5,29.45Z" transform="translate(86.46 -17.55) rotate(90)"/></g></g></svg>